# xmcd CD database file
#
# Track frame offsets:
#	150
#	27937
#	50387
#	76722
#	104630
#	146422
#	166137
#	186607
#	216600
#	248512
#
# Disc length: 3649 seconds
#
# Revision: 0
# Processed by: cddbd v1.5.2PL0 Copyright (c) Steve Scherf et al.
# Submitted via: CDex 1.70beta2
#
DISCID=880e3f0a
DTITLE=The Great Jazz Quintett - Minority Anyone
DYEAR=1994
DGENRE=Jazz
TTITLE0=On Green Dolphin Street
TTITLE1=Minority Anyone
TTITLE2=Tickle Toe
TTITLE3=Cotton Tail
TTITLE4=Lament ForMr.Noguchi
TTITLE5=St. Thomas
TTITLE6=Indian Summer
TTITLE7=All The Things You Are
TTITLE8=Softly As In A Morning Sunrise
TTITLE9=Love For Sale
EXTD=YEAR: 1994
EXTT0=
EXTT1=
EXTT2=
EXTT3=
EXTT4=
EXTT5=
EXTT6=
EXTT7=
EXTT8=
EXTT9=
PLAYORDER=
